<mxfile>
  <diagram name="Order Processing Sequence Diagram">
    <mxGraphModel dx="1300" dy="1300" grid="1" gridSize="10" guides="1" tooltips="1" connect="1" arrows="1" fold="1" page="1" pageScale="1" pageWidth="827" pageHeight="1169" math="0" shadow="0">
      <root>
        <mxCell id="0" />
        <mxCell id="1" parent="0" />
        <!-- Participants -->
        <mxCell id="2" value="User" style="shape=swimlane;whiteSpace=wrap;html=1;" vertex="1" parent="1">
          <mxGeometry x="0" y="0" width="150" height="1200" as="geometry" />
        </mxCell>
        <mxCell id="3" value="System" style="shape=swimlane;whiteSpace=wrap;html=1;" vertex="1" parent="1">
          <mxGeometry x="150" y="0" width="150" height="1200" as="geometry" />
        </mxCell>
        <mxCell id="4" value="Warehouse" style="shape=swimlane;whiteSpace=wrap;html=1;" vertex="1" parent="1">
          <mxGeometry x="300" y="0" width="150" height="1200" as="geometry" />
        </mxCell>
        <mxCell id="5" value="Payment Gateway" style="shape=swimlane;whiteSpace=wrap;html=1;" vertex="1" parent="1">
          <mxGeometry x="450" y="0" width="150" height="1200" as="geometry" />
        </mxCell>
        <!-- Actions -->
        <mxCell id="6" value="Login" style="rounded=1;whiteSpace=wrap;html=1;" vertex="1" parent="2">
          <mxGeometry x="20" y="40" width="110" height="40" as="geometry" />
        </mxCell>
        <mxCell id="7" value="Add Items to Cart" style="rounded=1;whiteSpace=wrap;html=1;" vertex="1" parent="2">
          <mxGeometry x="20" y="120" width="110" height="40" as="geometry" />
        </mxCell>
        <mxCell id="8" value="Confirm Order" style="rounded=1;whiteSpace=wrap;html=1;" vertex="1" parent="2">
          <mxGeometry x="20" y="200" width="110" height="40" as="geometry" />
        </mxCell>
        <mxCell id="9" value="Check Stock" style="rounded=1;whiteSpace=wrap;html=1;" vertex="1" parent="3">
          <mxGeometry x="20" y="280" width="110" height="40" as="geometry" />
        </mxCell>
        <mxCell id="10" value="Notify User" style="rounded=1;whiteSpace=wrap;html=1;" vertex="1" parent="3">
          <mxGeometry x="20" y="360" width="110" height="40" as="geometry" />
        </mxCell>
        <mxCell id="11" value="Choose Payment Method" style="rounded=1;whiteSpace=wrap;html=1;" vertex="1" parent="2">
          <mxGeometry x="20" y="440" width="110" height="40" as="geometry" />
        </mxCell>
        <mxCell id="12" value="Process Payment" style="rounded=1;whiteSpace=wrap;html=1;" vertex="1" parent="5">
          <mxGeometry x="20" y="520" width="110" height="40" as="geometry" />
        </mxCell>
        <mxCell id="13" value="Send Payment Confirmation" style="rounded=1;whiteSpace=wrap;html=1;" vertex="1" parent="3">
          <mxGeometry x="20" y="600" width="110" height="40" as="geometry" />
        </mxCell>
        <mxCell id="14" value="Notify Warehouse" style="rounded=1;whiteSpace=wrap;html=1;" vertex="1" parent="3">
          <mxGeometry x="20" y="680" width="110" height="40" as="geometry" />
        </mxCell>
        <mxCell id="15" value="Assemble Order" style="rounded=1;whiteSpace=wrap;html=1;" vertex="1" parent="4">
          <mxGeometry x="20" y="760" width="110" height="40" as="geometry" />
        </mxCell>
        <mxCell id="16" value="End" style="ellipse;whiteSpace=wrap;html=1;" vertex="1" parent="3">
          <mxGeometry x="40" y="840" width="60" height="40" as="geometry" />
        </mxCell>
        <!-- Connections -->
        <mxCell id="17" style="edgeStyle=orthogonalEdgeStyle;rounded=0;html=1;" edge="1" source="6" target="7" parent="1">
          <mxGeometry relative="1" as="geometry" />
        </mxCell>
        <mxCell id="18" style="edgeStyle=orthogonalEdgeStyle;rounded=0;html=1;" edge="1" source="7" target="8" parent="1">
          <mxGeometry relative="1" as="geometry" />
        </mxCell>
        <mxCell id="19" style="edgeStyle=orthogonalEdgeStyle;rounded=0;html=1;" edge="1" source="8" target="9" parent="1">
          <mxGeometry relative="1" as="geometry" />
        </mxCell>
        <mxCell id="20" style="edgeStyle=orthogonalEdgeStyle;rounded=0;html=1;" edge="1" source="9" target="10" parent="1">
          <mxGeometry relative="1" as="geometry" />
        </mxCell>
        <mxCell id="21" style="edgeStyle=orthogonalEdgeStyle;rounded=0;html=1;" edge="1" source="10" target="11" parent="1">
          <mxGeometry relative="1" as="geometry" />
        </mxCell>
        <mxCell id="22" style="edgeStyle=orthogonalEdgeStyle;rounded=0;html=1;" edge="1" source="11" target="12" parent="1">
          <mxGeometry relative="1" as="geometry" />
        </mxCell>
        <mxCell id="23" style="edgeStyle=orthogonalEdgeStyle;rounded=0;html=1;" edge="1" source="12" target="13" parent="1">
          <mxGeometry relative="1" as="geometry" />
        </mxCell>
        <mxCell id="24" style="edgeStyle=orthogonalEdgeStyle;rounded=0;html=1;" edge="1" source="13" target="14" parent="1">
          <mxGeometry relative="1" as="geometry" />
        </mxCell>
        <mxCell id="25" style="edgeStyle=orthogonalEdgeStyle;rounded=0;html=1;" edge="1" source="14" target="15" parent="1">
          <mxGeometry relative="1" as="geometry" />
        </mxCell>
        <mxCell id="26" style="edgeStyle=orthogonalEdgeStyle;rounded=0;html=1;" edge="1" source="15" target="16" parent="1">
          <mxGeometry relative="1" as="geometry" />
        </mxCell>
      </root>
    </mxGraphModel>
  </diagram>
</mxfile>
